<svg xmlns="http://www.w3.org/2000/svg" xmlns:xlink="http://www.w3.org/1999/xlink" viewBox="0 0 167.3 44.5"><defs><style>.a{fill:url(#a);}.b{fill:url(#b);}.c{fill:#98d09d;}.d{fill:#2db34a;}.e{fill:#0f9045;}</style><linearGradient id="a" x1="-127.6" y1="227.61" x2="-130.82" y2="230.15" gradientTransform="matrix(4.8, 0, 0, -4.8, 646, 1123.6)" gradientUnits="userSpaceOnUse"><stop offset="0" stop-color="#0e8341"/><stop offset="1" stop-color="#9bce71"/></linearGradient><linearGradient id="b" x1="-132.54" y1="228.94" x2="-132.54" y2="224.49" gradientTransform="matrix(4.8, 0, 0, -4.8, 646, 1123.6)" gradientUnits="userSpaceOnUse"><stop offset="0" stop-color="#98d09d"/><stop offset="0.25" stop-color="#98d09d"/><stop offset="0.25" stop-color="#c7e5cc"/><stop offset="0.5" stop-color="#c7e5cc"/></linearGradient></defs><path class="a" d="M19.9,37.5l16.3-4.9L34,42.4l7.6-7.6,3.8,13V23.4H14.5l17.9,4.3Z" transform="translate(-1.2 -3.3)"/><path class="b" d="M18.4,46c-4.9-3.2-8.5-11.5-8.5-21.3S13.5,6.5,18.4,3.3C8.3,4.8,1.2,11.8,1.2,24.7S8.3,44.5,18.4,46Z" transform="translate(-1.2 -3.3)"/><path class="c" d="M27.5,3.3c3.7,2.4,6.6,7.7,7.8,14.3h8.5C41.7,9.3,35.6,4.5,27.5,3.3Z" transform="translate(-1.2 -3.3)"/><path class="d" d="M27.5,46c8.1-1.2,14.2-5.9,16.3-14.3H35.3c-1.2,6.6-4.1,11.9-7.8,14.3Z" transform="translate(-1.2 -3.3)"/><path class="e" d="M68,26.4h-.2a2.9,2.9,0,0,1-2.1-.6,2.1,2.1,0,0,1-.6-1.6,3.4,3.4,0,0,1,.1-.9,3.2,3.2,0,0,1,.3-.9h6.7a1.3,1.3,0,0,1,.9.5,1.6,1.6,0,0,1,.5,1,9,9,0,0,1,.2,1.8v7l-1.1.4-1.2.2a3.4,3.4,0,0,1-1.7-.5,3.1,3.1,0,0,1-1.1-1.6,5.2,5.2,0,0,1-2.6,1.6,9.3,9.3,0,0,1-2.9.5,8.6,8.6,0,0,1-3.8-.8,6.1,6.1,0,0,1-2.6-2.1,7.1,7.1,0,0,1-1.5-3,13.4,13.4,0,0,1-.4-3.5,18.6,18.6,0,0,1,.5-4.2,9.6,9.6,0,0,1,1.8-3.3,8.5,8.5,0,0,1,3.2-2.3,12.2,12.2,0,0,1,4.6-.8l2.7.2a8.4,8.4,0,0,1,2.4.7,3.7,3.7,0,0,1,1.7,1.3,2.5,2.5,0,0,1,.7,1.9,3.3,3.3,0,0,1-.6,1.9,4,4,0,0,1-1.6,1.2,9.3,9.3,0,0,0-2.2-.8,7.8,7.8,0,0,0-2.6-.4,3.6,3.6,0,0,0-2.7,1,3.9,3.9,0,0,0-1,3.1,8.8,8.8,0,0,0,.2,1.6,3.4,3.4,0,0,0,.5,1.4,3.6,3.6,0,0,0,3,1.4H67l.7-.3A.5.5,0,0,0,68,27Zm13.6-.8a2.5,2.5,0,0,0,.1.8,1.6,1.6,0,0,0,.4.7l.6.6.9.2a2,2,0,0,0,1.5-.6,2.4,2.4,0,0,0,.6-1.7,2.4,2.4,0,0,0-.6-1.8,1.8,1.8,0,0,0-1.4-.6,2,2,0,0,0-1.5.6,2.4,2.4,0,0,0-.6,1.8Zm2.2,7.8a15.8,15.8,0,0,1-4.1-.5,8.2,8.2,0,0,1-2.8-1.5A6.3,6.3,0,0,1,75.3,29a7.3,7.3,0,0,1-.5-3,8.3,8.3,0,0,1,.5-3.2A6.5,6.5,0,0,1,77,20.2a6.8,6.8,0,0,1,2.8-1.8,9.4,9.4,0,0,1,3.9-.7,11.6,11.6,0,0,1,4,.6,6.4,6.4,0,0,1,4.4,3.8,9.6,9.6,0,0,1,.5,3.1,8.1,8.1,0,0,1-.6,3.1,6.3,6.3,0,0,1-1.6,2.6,6.4,6.4,0,0,1-2.7,1.8,9.4,9.4,0,0,1-3.9.7ZM110,24.1v3a1.3,1.3,0,0,0,.3,1,.7.7,0,0,0,.6.2h.8a4.2,4.2,0,0,1,.4,1.8,3.1,3.1,0,0,1-1.1,2.5,4.3,4.3,0,0,1-2.8.9,5.3,5.3,0,0,1-2.6-.6,4,4,0,0,1-1.7-2.2,6,6,0,0,1-2.1,2.1,9.5,9.5,0,0,1-3.2.7l-2.1-.3-1.7-.8a5.3,5.3,0,0,1-1.2-1.4,4.6,4.6,0,0,1-.5-2.1,4.1,4.1,0,0,1,.6-2.3,5.2,5.2,0,0,1,3.6-2.3,10.7,10.7,0,0,1,2.5-.3h1.7l1.4.4a3,3,0,0,0-.2-1l-.6-.5a3.2,3.2,0,0,0-.9-.3h-.9a10.7,10.7,0,0,0-2.5.3,3.8,3.8,0,0,0-2,1,2.9,2.9,0,0,1-1.1-1.1,2.4,2.4,0,0,1-.4-1.5,1.9,1.9,0,0,1,.5-1.4,3,3,0,0,1,1.5-1.1,5.2,5.2,0,0,1,2.3-.7,15.5,15.5,0,0,1,3.1-.3,16.9,16.9,0,0,1,3.3.3,6.7,6.7,0,0,1,2.6,1,4.1,4.1,0,0,1,1.8,1.9,7.6,7.6,0,0,1,.6,3.2ZM102.9,27v-.8h-.8l-1,.3-.8.6a1.7,1.7,0,0,0-.3,1,1.5,1.5,0,0,0,.3,1,1.6,1.6,0,0,0,.9.3c1.2,0,1.7-.8,1.7-2.5Zm16.9-11.5v5.9a6.2,6.2,0,0,1,2.1-2.9,5.7,5.7,0,0,1,2.9-.8,5.6,5.6,0,0,1,2.3.5,5,5,0,0,1,1.7,1.5,5.1,5.1,0,0,1,1,2.1,6.9,6.9,0,0,1,.4,2.5,10.6,10.6,0,0,1-.6,3.7,7.5,7.5,0,0,1-4.7,4.7,9.4,9.4,0,0,1-3.9.7,15.5,15.5,0,0,1-3.1-.4,7.1,7.1,0,0,1-2.6-1.3,6.4,6.4,0,0,1-1.8-2.5,8.2,8.2,0,0,1-.7-3.7V18.1a10.8,10.8,0,0,0-.4-3,11.4,11.4,0,0,0-.9-1.9l1.7-.4,1.8-.6,1.6-.5,1.1-.2a1.6,1.6,0,0,1,1.1.4,3.6,3.6,0,0,1,.7,1l.3,1.3v1.3Zm.1,8v1.3c0,.3.1.7.1,1.1l.3,1a2.4,2.4,0,0,0,.6.8l.9.2a1.3,1.3,0,0,0,1.2-.6,2.3,2.3,0,0,0,.4-1.4,2.5,2.5,0,0,0-.7-1.9,2.4,2.4,0,0,0-1.8-.7l-1,.2Zm27.9.6v3a1.3,1.3,0,0,0,.3,1,.7.7,0,0,0,.6.2h.8a4.2,4.2,0,0,1,.4,1.8,3.1,3.1,0,0,1-1.1,2.5,4.3,4.3,0,0,1-2.8.9,5.3,5.3,0,0,1-2.6-.6,4,4,0,0,1-1.7-2.2,6,6,0,0,1-2.1,2.1,9.5,9.5,0,0,1-3.2.7,7.6,7.6,0,0,1-2.1-.3l-1.7-.8a5.3,5.3,0,0,1-1.2-1.4,4.6,4.6,0,0,1-.5-2.1,4.1,4.1,0,0,1,.6-2.3A5.4,5.4,0,0,1,133,25a5.3,5.3,0,0,1,2.2-.8,9.3,9.3,0,0,1,2.4-.3h1.7l1.4.4a3,3,0,0,0-.2-1l-.6-.5-.9-.3h-.9a10.7,10.7,0,0,0-2.5.3,4.2,4.2,0,0,0-2,1,3.8,3.8,0,0,1-1.1-1.1,2.4,2.4,0,0,1-.4-1.5,1.9,1.9,0,0,1,.5-1.4,3,3,0,0,1,1.5-1.1,5.2,5.2,0,0,1,2.3-.7,14.8,14.8,0,0,1,3.1-.3,16.9,16.9,0,0,1,3.3.3,6.7,6.7,0,0,1,2.6,1,4.1,4.1,0,0,1,1.8,1.9,7.6,7.6,0,0,1,.6,3.2ZM140.7,27v-.8h-.9l-.9.3-.8.6a1.7,1.7,0,0,0-.3,1,1.5,1.5,0,0,0,.3,1,1.6,1.6,0,0,0,.9.3c1.2,0,1.7-.8,1.7-2.5Zm20.8,2.4a7.2,7.2,0,0,1-2.3,3.1,4.9,4.9,0,0,1-3,.9,4,4,0,0,1-3.1-1.3q-1.2-1.2-1.2-4.2V22.5a2.1,2.1,0,0,1-1.5-.4,1.9,1.9,0,0,1-.8-1,5,5,0,0,1-.4-1.3V18.6l4-.4,3.9-.5a1.8,1.8,0,0,1,1.1.3l.6.7a2.4,2.4,0,0,1,.2.9V27a1.3,1.3,0,0,0,.3,1l.7.2a1.3,1.3,0,0,0,1.1-.7,4.6,4.6,0,0,0,.4-2.2V22a8.8,8.8,0,0,0-.2-1.7c-.1-.5-.3-1-.4-1.4l2.3-.5,1.6-.4,1-.2h.6a2.1,2.1,0,0,1,1.2.3l.6.8a3.6,3.6,0,0,1,.2,1.1,4.9,4.9,0,0,1,.1,1.2v3.6c0,2.1-.1,4.2-.3,6.2a18,18,0,0,1-1.4,5.3,9.4,9.4,0,0,1-3,3.8,7.6,7.6,0,0,1-5,1.5,4.6,4.6,0,0,1-2.1-.4,3.5,3.5,0,0,1-1.6-.9,2.8,2.8,0,0,1-1-1.2,4.5,4.5,0,0,1-.3-1.6,3.3,3.3,0,0,1,.4-1.7,2.8,2.8,0,0,1,1.3-1.1,2.4,2.4,0,0,0,1.1.6,2.7,2.7,0,0,0,1.3.2,3.1,3.1,0,0,0,1.9-.6,5.8,5.8,0,0,0,1.1-1.5,11.7,11.7,0,0,0,.5-2,12.8,12.8,0,0,0,.1-1.9Z" transform="translate(-1.2 -3.3)"/></svg>