<svg id="Layer_1" data-name="Layer 1" xmlns="http://www.w3.org/2000/svg" xmlns:xlink="http://www.w3.org/1999/xlink" viewBox="0 0 93.54 94.17"><defs><style>.cls-1{fill:url(#linear-gradient);}.cls-2{fill:url(#linear-gradient-2);}.cls-3{fill:#98d09d;}.cls-4{fill:#2db34a;}</style><linearGradient id="linear-gradient" x1="-351.83" y1="243.53" x2="-363.95" y2="253.1" gradientTransform="matrix(2.7, 0, 0, -2.7, 1031.85, 729.32)" gradientUnits="userSpaceOnUse"><stop offset="0" stop-color="#0e8341"/><stop offset="1" stop-color="#9bce71"/></linearGradient><linearGradient id="linear-gradient-2" x1="-370.4" y1="248.56" x2="-370.4" y2="231.81" gradientTransform="matrix(2.7, 0, 0, -2.7, 1031.85, 729.32)" gradientUnits="userSpaceOnUse"><stop offset="0" stop-color="#98d09d"/><stop offset="0.25" stop-color="#98d09d"/><stop offset="0.25" stop-color="#c7e5cc"/><stop offset="0.5" stop-color="#c7e5cc"/></linearGradient></defs><g id="symbol"><g id="construct"><g id="Layer_1-2" data-name="Layer 1"><path class="cls-1" d="M53.15,85.33,87.61,75,83,95.67,99.09,79.59l8,27.56V55.47H41.67l37.9,9.19Z" transform="translate(-13.59 -12.98)"/></g><g id="Layer_1-3" data-name="Layer 1"><path class="cls-2" d="M49.94,103.43C39.44,96.6,32,78.93,32,58.2s7.47-38.41,18-45.22C28.52,16.26,13.59,31.08,13.59,58.2S28.52,100.13,49.94,103.43Z" transform="translate(-13.59 -12.98)"/><path class="cls-3" d="M69.11,13c7.86,5.11,14,16.3,16.63,30.31h18C99.16,25.61,86.2,15.6,69.11,13Z" transform="translate(-13.59 -12.98)"/><path class="cls-4" d="M69.11,103.43c17.09-2.63,30.05-12.64,34.58-30.3h-18c-2.6,14-8.77,25.19-16.63,30.3Z" transform="translate(-13.59 -12.98)"/></g></g></g></svg>